# xmcd
#
# Track frame offsets: 
#        150
#        23915
#        45497
#        70457
#        99180
#        128225
#        149537
#        177475
#
# Disc length: 2640 seconds
#
# Revision: 1
# Processed by: cddbd v1.5.2PL0 Copyright (c) Steve Scherf et al.
# Submitted via: ExactAudioCopy v1.1
#
DISCID=6f0a4e08
DTITLE=Luther Vandross - Forever, For Always, For Love
DYEAR=1982
DGENRE=R&B
TTITLE0=Bad Boy - Having A Party
TTITLE1=You're The Sweetest One
TTITLE2=Since I Lost My Baby
TTITLE3=Forever, For Always, For Love
TTITLE4=Better Love
TTITLE5=Promise Me
TTITLE6=She Loves Me Back
TTITLE7=Once You Know How
EXTD=
EXTT0=
EXTT1=
EXTT2=
EXTT3=
EXTT4=
EXTT5=
EXTT6=
EXTT7=
PLAYORDER=
